<svg xmlns="http://www.w3.org/2000/svg" version="1.1" xmlns:xlink="http://www.w3.org/1999/xlink" xmlns:svgjs="http://svgjs.com/svgjs" width="198" height="198"><svg width="198" height="198" viewBox="0 0 198 198" fill="none" xmlns="http://www.w3.org/2000/svg">
<ellipse cx="98.56" cy="99" rx="98.56" ry="99" fill="#212121"></ellipse>
<path d="M54.1134 101.224L53.4376 99.6353L52.3808 98.319L51.1504 97.2424L49.626 96.3185L47.8567 95.8572L46.1208 95.6028L44.347 95.7781L42.6058 96.1604L40.914 96.8525L39.3744 97.8387L38.0914 99.1021L37.2544 100.507L36.7766 102.172L36.6418 103.995L36.8502 105.976L37.2814 108.027L37.9738 109.719L39.047 111.139L40.174 112.232L41.8019 113.139L43.5873 113.704L45.3232 113.959L47.217 113.87L48.9416 113.384L50.6172 112.589L52.14 111.499L53.3036 110.149L54.1407 108.744L54.6184 107.079L54.8564 105.239L54.6319 103.155L54.1134 101.224ZM58.9236 130.878L58.1445 129.306L57.0712 127.886L55.8408 126.81L54.3328 125.989L52.6673 125.512L50.844 125.377L49.0539 125.449L47.2091 125.847L45.5174 126.54L43.978 127.526L42.798 128.773L41.9612 130.177L41.4834 131.843L41.3486 133.666L41.5734 135.75L41.9882 137.698L42.7841 139.373L43.7536 140.809L44.9843 141.886L46.5087 142.81L48.2941 143.375L50.1498 143.716L51.9403 143.644L53.6648 143.158L55.3405 142.363L56.8468 141.17L58.0104 139.82L58.8475 138.415L59.3252 136.749L59.5633 134.91L59.3551 132.929L58.9236 130.878ZM103.82 49.7792L102.497 49.4589L99.2431 49.6574L95.9678 50.3889L89.4546 51.4221L88.4371 51.6893L88.0187 52.3916L87.2487 56.2233L86.8052 60.109L85.6926 63.7834L84.5958 67.5608L84.0326 71.3594L83.5894 75.2454L81.8099 82.7346L80.2699 90.3977L79.1569 94.0716L78.1638 97.8326L77.6171 101.735L77.1572 105.517L76.3872 109.349L75.7206 113.164L74.7275 116.925L73.6146 120.599L72.9644 124.518L72.4013 128.316L71.2881 131.99L70.1918 135.768L69.3021 139.512L69.1852 143.452L69.5344 144.987L70.8027 145.634L74.0242 145.228L77.3538 144.17L80.5586 143.662L83.7307 142.947L84.5251 142.609L84.8401 141.923L85.73 138.178L86.3965 134.363L88.3827 126.841L90.1622 119.352L90.9323 115.52L91.5988 111.705L92.4721 107.857L93.2585 104.129L93.925 100.313L94.4881 96.5148L96.0282 88.8517L98.0144 81.3297L99.3478 73.6994L100.118 69.8677L100.784 66.0524L102.564 58.5632L103.66 54.7858L104.12 51.0036L103.82 49.7792ZM159.75 40.9067L158.427 40.5865L155.173 40.785L151.898 41.5165L145.385 42.5497L144.367 42.8169L143.949 43.5191L143.179 47.3508L142.735 51.2365L141.622 54.9107L140.526 58.6881L139.963 62.4867L139.519 66.3727L137.74 73.8619L136.2 81.525L135.087 85.199L134.094 88.9599L133.547 92.862L133.087 96.6447L132.317 100.476L131.651 104.291L130.657 108.052L129.544 111.726L128.894 115.645L128.331 119.444L127.218 123.118L126.122 126.895L125.232 130.64L125.115 134.58L125.464 136.114L126.733 136.761L129.954 136.356L133.284 135.298L136.489 134.789L139.661 134.074L140.455 133.736L140.77 133.05L141.66 129.305L142.326 125.49L144.312 117.968L146.092 110.479L146.862 106.648L147.528 102.832L148.402 98.9844L149.188 95.2562L149.855 91.4407L150.418 87.6421L151.958 79.979L153.944 72.457L155.277 64.8267L156.047 60.995L156.714 57.1797L158.494 49.6905L159.59 45.9131L160.05 42.1308L159.75 40.9067Z" fill="#F5F5F5"></path>
</svg><style>@media (prefers-color-scheme: light) { :root { filter: none; } }
</style></svg>