<svg fill="none" viewBox="0 0 629 728" xmlns="http://www.w3.org/2000/svg">
      <style>
        path {
          background: #f5f5f5;
        }

        :root {
          --1st-gate: #50c878;
          --2nd-gate: #60d386;
          --3rd-gate: #71e094;
          --4th-gate: #82eda2;
          --5th-gate: #98ffb0;
        }

        @media (prefers-color-scheme: dark) {
          #gate-2 {
            fill: var(--1st-gate);
          }
          #gate-3 {
            fill: var(--2nd-gate);
          }
          #gate-4 {
            fill: var(--3rd-gate);
          }
          #gate-5 {
            fill: var(--4th-gate);
          }
          #gate-6 {
            fill: var(--5th-gate);
          }
        }

        @media (prefers-color-scheme: light) {
          #gate-2 {
            fill: var(--5th-gate);
          }
          #gate-3 {
            fill: var(--4th-gate);
          }
          #gate-4 {
            fill: var(--3rd-gate);
          }
          #gate-5 {
            fill: var(--2nd-gate);
          }
          #gate-6 {
            fill: var(--1st-gate);
          }
        }
      </style>
      <path
        id="gate-1"
        d="M605.955 221.388L333.896 8.01118C326.727 2.41607 320.325 0 314.564 0C308.675 0 302.401 2.41606 295.232 8.13833L23.173 221.388C10.8824 231.053 0 246.693 0 271.236V693.794C0 714.012 10.4983 728 31.7509 728H597.249C618.502 728 629 714.012 629 693.794V271.236C629 246.693 618.246 231.053 605.955 221.388Z"
        fill="#F5F5F5"
      />
      <path
        id="gate-2"
        d="M605.955 221.388L333.896 8.01118C326.727 2.41607 320.325 0 314.564 0C308.675 0 302.401 2.41606 295.232 8.13833L23.173 221.388C10.8824 231.053 0 246.693 0 271.236V693.794C0 714.012 10.4983 728 31.7509 728H597.249C618.502 728 629 714.012 629 693.794V271.236C629 246.693 618.246 231.053 605.955 221.388ZM558.585 630.34C558.585 649.16 547.831 657.934 532.083 657.934H97.173C81.4256 657.934 70.6713 649.16 70.6713 630.34V300.356C70.6713 282.044 75.0242 271.617 88.0831 261.317C95.5087 255.468 293.311 100.33 298.561 96.2613C303.81 92.065 309.443 90.0304 314.564 90.0304C319.685 90.0304 325.318 92.1922 330.568 96.2613C335.817 100.458 533.619 255.595 541.045 261.317C554.104 271.617 558.457 282.172 558.457 300.356L558.585 630.34Z"
        fill="#50C878"
      />
      <path
        id="gate-3"
        d="M542.6 261.1L330.1 93.3C324.5 88.9 319.5 87 315 87C310.4 87 305.5 88.9 299.9 93.4L87.4 261.1C77.8 268.7 69.3 281 69.3 300.3V632.6C69.3 648.5 77.5001 659.5 94.1001 659.5H535.8C552.4 659.5 560.6 648.5 560.6 632.6V300.3C560.6 281 552.2 268.7 542.6 261.1ZM505.6 582.7C505.6 597.5 497.2 604.4 484.9 604.4H145.2C132.9 604.4 124.5 597.5 124.5 582.7V323.2C124.5 308.8 127.9 300.6 138.1 292.5C143.9 287.9 298.4 165.9 302.5 162.7C306.6 159.4 311 157.8 315 157.8C319 157.8 323.4 159.5 327.5 162.7C331.6 166 486.1 288 491.9 292.5C502.1 300.6 505.5 308.9 505.5 323.2L505.6 582.7Z"
        fill="#60D386"
      />
      <path
        id="gate-4"
        d="M491.9 292.5C486.1 288 331.6 165.9 327.5 162.7C323.4 159.4 319 157.8 315 157.8C311 157.8 306.6 159.5 302.5 162.7C298.4 166 143.9 288 138.1 292.5C127.9 300.6 124.5 308.9 124.5 323.2V582.7C124.5 597.5 132.9 604.4 145.2 604.4H484.9C497.2 604.4 505.6 597.5 505.6 582.7V323.2C505.5 308.9 502.1 300.6 491.9 292.5ZM450.4 532.8C450.4 544.7 443.8 549.3 434.8 549.3H195.2C186.2 549.3 179.6 544.7 179.6 532.8V346.2C179.6 337.9 179.6 331.3 188.7 324C194.7 319.2 301.9 234.6 305.1 232.1C308.3 229.6 311.5 228.3 315 228.3C318.6 228.4 322.1 229.8 324.9 232.1C328.1 234.6 435.3 319.2 441.3 324C450.4 331.3 450.4 337.9 450.4 346.2V532.8Z"
        fill="#71E094"
      />
      <path
        id="gate-5"
        d="M441.3 324C435.3 319.2 328.1 234.6 324.9 232.1C322.1 229.7 318.6 228.4 315 228.3C311.5 228.3 308.3 229.6 305.1 232.1C301.9 234.6 194.6 319.2 188.7 324C179.6 331.3 179.6 337.9 179.6 346.2V532.8C179.6 544.7 186.2 549.3 195.2 549.3H434.7C443.7 549.3 450.3 544.7 450.3 532.8V346.2C450.4 337.8 450.4 331.2 441.3 324ZM395.3 483C395.3 492.2 390.7 494.2 384.3 494.2H245.8C239.4 494.2 234.8 492.1 234.8 483V369.1C234.8 362.7 237.7 356.5 242.6 352.5C245.4 350.2 305.6 303.1 307.7 301.4C311.9 297.9 318.1 297.9 322.3 301.4C324.5 303.1 384.6 350.2 387.4 352.5C392.4 356.6 395.3 362.7 395.2 369.1L395.3 483Z"
        fill="#82EDA2"
      />
      <path
        id="gate-6"
        d="M315 494.1H384.2C390.6 494.1 395.2 492 395.2 482.9V369.1C395.2 362.7 392.3 356.5 387.4 352.5C384.6 350.2 324.4 303.1 322.3 301.4C318.1 297.9 311.9 297.9 307.7 301.4C305.6 303.1 245.4 350.2 242.6 352.5C237.6 356.6 234.7 362.7 234.8 369.1V482.9C234.8 492.1 239.4 494.1 245.8 494.1H315Z"
        fill="#98FFB0"
      />
    </svg>
