<svg fill="none" viewBox="0 0 629 728" xmlns="http://www.w3.org/2000/svg">
      <style>
        :root {
          --theme-color: #212121;
          --accent-color: #ff1443;
        }

        .bridge {
          fill: var(--theme-color);
          stroke: var(--theme-color);
        }

        .cornerstone {
          fill: var(--accent-color);
          stroke: var(--accent-color);
        }

        @media (prefers-color-scheme: dark) {
          :root {
            --theme-color: #f5f5f5;
          }
        }

        @media (prefers-color-scheme: light) {
          :root {
            --theme-color: #212121;
          }
        }
      </style>

      <g id="nakala">
        <path
          class="cornerstone left"
          d="M45.4045 204.337H17C8.16345 204.337 1 211.501 1 220.337V241C1 249.837 8.16343 257 17 257H45.4045C54.241 257 61.4045 249.837 61.4045 241V220.337C61.4045 211.501 54.2411 204.337 45.4045 204.337Z"
        />
        <path
          class="bridge bottom"
          d="M41.5509 106.326H23.6743C11.1516 106.326 1 116.477 1 129C1 141.523 11.1516 151.674 23.6743 151.674H41.4303C47.8837 151.674 54.1864 153.626 59.5109 157.272L188.422 245.551C193.746 249.197 200.049 251.149 206.502 251.149H226.403C239.33 251.149 249.809 240.669 249.809 227.743C249.809 214.816 239.33 204.337 226.403 204.337H206.382C200.003 204.337 193.771 202.431 188.483 198.864L59.4493 111.799C54.162 108.232 47.9292 106.326 41.5509 106.326Z"
        />
        <path
          class="bridge top"
          d="M41.6724 1H26.6C12.4615 1 1 12.4615 1 26.6C1 40.7385 12.4615 52.2 26.6 52.2H41.4303C47.8837 52.2 54.1864 54.1512 59.5109 57.7975L188.422 146.077C193.746 149.723 200.049 151.674 206.502 151.674H222.746C237.693 151.674 249.809 139.558 249.809 124.611C249.809 109.665 237.693 97.5486 222.746 97.5486H206.26C199.958 97.5486 193.795 95.6875 188.547 92.1987L59.386 6.34983C54.1371 2.8611 47.9749 1 41.6724 1Z"
        />
        <path
          class="cornerstone right"
          d="M241 1H212.596C203.759 1 196.596 8.16345 196.596 17V37.6629C196.596 46.4994 203.759 53.6629 212.596 53.6629H241C249.837 53.6629 257 46.4994 257 37.6629V17C257 8.16344 249.837 1 241 1Z"
        />
      </g>
    </svg>
