<svg width="385" height="128" viewBox="0 0 385 128" fill="none" xmlns="http://www.w3.org/2000/svg">
<g clip-path="url(#clip0_817_35)">
<path d="M2.23344 51L8.37744 14.808H17.6894L24.9374 34.104L32.1374 14.808H41.4494L47.5934 51H38.2334L35.1134 30.168L26.5694 51H22.8254L14.7134 30.168L11.5934 51H2.23344ZM67.9529 51V14.808H77.3609L94.7369 36.936V14.808H104.097V51H94.7369L77.3609 28.872V51H67.9529ZM146.679 22.776H135.495V28.824H146.055V36.792H135.495V43.032H146.679V51H126.087V14.808H146.679V22.776ZM167.862 51V14.808H177.27L194.646 36.936V14.808H204.006V51H194.646L177.27 28.872V51H167.862ZM244.269 30.744H262.941C262.941 32.664 262.861 34.408 262.701 35.976C262.541 37.544 262.221 39 261.741 40.344C261.069 42.232 260.157 43.912 259.005 45.384C257.853 46.824 256.493 48.04 254.925 49.032C253.389 49.992 251.693 50.728 249.837 51.24C247.981 51.752 246.029 52.008 243.981 52.008C241.165 52.008 238.589 51.544 236.253 50.616C233.949 49.688 231.965 48.392 230.301 46.728C228.637 45.032 227.341 43.016 226.413 40.68C225.485 38.312 225.021 35.704 225.021 32.856C225.021 30.04 225.469 27.464 226.365 25.128C227.293 22.76 228.589 20.744 230.253 19.08C231.949 17.416 233.981 16.12 236.349 15.192C238.717 14.264 241.357 13.8 244.269 13.8C248.045 13.8 251.357 14.616 254.205 16.248C257.053 17.88 259.309 20.408 260.973 23.832L252.045 27.528C251.213 25.544 250.125 24.12 248.781 23.256C247.469 22.392 245.965 21.96 244.269 21.96C242.861 21.96 241.581 22.232 240.429 22.776C239.277 23.288 238.285 24.04 237.453 25.032C236.653 25.992 236.013 27.16 235.533 28.536C235.085 29.912 234.861 31.448 234.861 33.144C234.861 34.68 235.053 36.104 235.437 37.416C235.853 38.728 236.461 39.864 237.261 40.824C238.061 41.784 239.053 42.536 240.237 43.08C241.421 43.592 242.797 43.848 244.365 43.848C245.293 43.848 246.189 43.752 247.053 43.56C247.917 43.336 248.685 43 249.357 42.552C250.061 42.072 250.637 41.464 251.085 40.728C251.533 39.992 251.837 39.096 251.997 38.04H244.269V30.744ZM288.773 14.808L295.013 38.184L302.693 14.808H310.181L317.861 38.184L324.101 14.808H333.941L323.141 51H313.541L306.437 30.024L299.333 51H289.733L278.933 14.808H288.773ZM369.914 37.56L365.69 25.512L361.466 37.56H369.914ZM372.41 44.712H358.97L356.81 51H346.778L360.554 14.808H370.826L384.602 51H374.57L372.41 44.712Z" fill="#F5F5F5"/>
<path d="M17.0484 96.0625L12.6891 98.3828C12.0016 96.9766 11.15 96.2734 10.1344 96.2734C9.65 96.2734 9.23594 96.4375 8.89219 96.7656C8.54844 97.0781 8.37656 97.4844 8.37656 97.9844C8.37656 98.8594 9.39219 99.7266 11.4234 100.586C14.2203 101.789 16.1031 102.898 17.0719 103.914C18.0406 104.93 18.525 106.297 18.525 108.016C18.525 110.219 17.7125 112.062 16.0875 113.547C14.5094 114.953 12.6031 115.656 10.3688 115.656C6.54063 115.656 3.82969 113.789 2.23594 110.055L6.73594 107.969C7.36094 109.062 7.8375 109.758 8.16563 110.055C8.80625 110.648 9.57188 110.945 10.4625 110.945C12.2438 110.945 13.1344 110.133 13.1344 108.508C13.1344 107.57 12.4469 106.695 11.0719 105.883C10.5406 105.617 10.0094 105.359 9.47813 105.109C8.94688 104.859 8.40781 104.602 7.86094 104.336C6.32969 103.586 5.25156 102.836 4.62656 102.086C3.82969 101.133 3.43125 99.9062 3.43125 98.4062C3.43125 96.4219 4.11094 94.7812 5.47031 93.4844C6.86094 92.1875 8.54844 91.5391 10.5328 91.5391C13.4547 91.5391 15.6266 93.0469 17.0484 96.0625ZM35.9203 97.0938V115H30.6469V97.0938H28.3969V92.1719H30.6469V83.8047H35.9203V92.1719H40.0219V97.0938H35.9203ZM56.0813 92.1719V105.273C56.0813 109.055 57.5734 110.945 60.5578 110.945C63.5422 110.945 65.0344 109.055 65.0344 105.273V92.1719H70.3078V105.391C70.3078 107.219 70.0813 108.797 69.6281 110.125C69.1906 111.312 68.4328 112.383 67.3547 113.336C65.5734 114.883 63.3078 115.656 60.5578 115.656C57.8234 115.656 55.5656 114.883 53.7844 113.336C52.6906 112.383 51.9172 111.312 51.4641 110.125C51.0266 109.062 50.8078 107.484 50.8078 105.391V92.1719H56.0813ZM100.992 75.4141H106.289V115H100.992V112.609C98.9141 114.641 96.5625 115.656 93.9375 115.656C90.8125 115.656 88.2188 114.516 86.1562 112.234C84.1094 109.906 83.0859 107 83.0859 103.516C83.0859 100.109 84.1094 97.2656 86.1562 94.9844C88.1875 92.6875 90.7422 91.5391 93.8203 91.5391C96.4922 91.5391 98.8828 92.6328 100.992 94.8203V75.4141ZM88.4766 103.516C88.4766 105.703 89.0625 107.484 90.2344 108.859C91.4375 110.25 92.9531 110.945 94.7812 110.945C96.7344 110.945 98.3125 110.273 99.5156 108.93C100.719 107.539 101.32 105.773 101.32 103.633C101.32 101.492 100.719 99.7266 99.5156 98.3359C98.3125 96.9766 96.75 96.2969 94.8281 96.2969C93.0156 96.2969 91.5 96.9844 90.2812 98.3594C89.0781 99.75 88.4766 101.469 88.4766 103.516ZM125.419 92.1719V115H120.145V92.1719H125.419ZM119.348 82.6797C119.348 81.7578 119.684 80.9609 120.356 80.2891C121.028 79.6172 121.833 79.2812 122.77 79.2812C123.723 79.2812 124.536 79.6172 125.208 80.2891C125.88 80.9453 126.216 81.75 126.216 82.7031C126.216 83.6562 125.88 84.4688 125.208 85.1406C124.552 85.8125 123.747 86.1484 122.794 86.1484C121.841 86.1484 121.028 85.8125 120.356 85.1406C119.684 84.4688 119.348 83.6484 119.348 82.6797ZM138.22 103.422C138.22 100.125 139.4 97.3203 141.759 95.0078C144.119 92.6953 146.994 91.5391 150.384 91.5391C153.791 91.5391 156.681 92.7031 159.056 95.0312C161.4 97.3594 162.572 100.219 162.572 103.609C162.572 107.031 161.392 109.898 159.033 112.211C156.658 114.508 153.744 115.656 150.291 115.656C146.869 115.656 144.002 114.484 141.689 112.141C139.377 109.828 138.22 106.922 138.22 103.422ZM143.611 103.516C143.611 105.797 144.22 107.602 145.439 108.93C146.689 110.273 148.337 110.945 150.384 110.945C152.447 110.945 154.095 110.281 155.33 108.953C156.564 107.625 157.181 105.852 157.181 103.633C157.181 101.414 156.564 99.6406 155.33 98.3125C154.08 96.9688 152.431 96.2969 150.384 96.2969C148.369 96.2969 146.736 96.9688 145.486 98.3125C144.236 99.6562 143.611 101.391 143.611 103.516ZM188.639 96.0625L184.28 98.3828C183.592 96.9766 182.741 96.2734 181.725 96.2734C181.241 96.2734 180.827 96.4375 180.483 96.7656C180.139 97.0781 179.967 97.4844 179.967 97.9844C179.967 98.8594 180.983 99.7266 183.014 100.586C185.811 101.789 187.694 102.898 188.663 103.914C189.631 104.93 190.116 106.297 190.116 108.016C190.116 110.219 189.303 112.062 187.678 113.547C186.1 114.953 184.194 115.656 181.959 115.656C178.131 115.656 175.42 113.789 173.827 110.055L178.327 107.969C178.952 109.062 179.428 109.758 179.756 110.055C180.397 110.648 181.163 110.945 182.053 110.945C183.834 110.945 184.725 110.133 184.725 108.508C184.725 107.57 184.038 106.695 182.663 105.883C182.131 105.617 181.6 105.359 181.069 105.109C180.538 104.859 179.998 104.602 179.452 104.336C177.92 103.586 176.842 102.836 176.217 102.086C175.42 101.133 175.022 99.9062 175.022 98.4062C175.022 96.4219 175.702 94.7812 177.061 93.4844C178.452 92.1875 180.139 91.5391 182.123 91.5391C185.045 91.5391 187.217 93.0469 188.639 96.0625Z" fill="#F5F5F5"/>
</g>
<defs>
<clipPath id="clip0_817_35">
<rect width="385" height="128" fill="white"/>
</clipPath>
</defs>
</svg>
